<svg xmlns="http://www.w3.org/2000/svg" width="1025" height="668" fill="none"><path fill="#fff" d="M818.959 156.738v460.42c0 27.919-22.826 50.842-50.843 50.842H307.697c-27.919 0-50.842-22.825-50.842-50.842v-230.21h85.814-.098s19.005-2.645 19.005-18.025c0-15.38-2.155-35.952 22.237-35.952 24.393 0 22.237 20.67 22.237 35.952 0 15.282 19.005 18.025 19.005 18.025h-.098 112.95V275.86s2.645-19.005 18.025-19.005c15.38 0 35.952 2.155 35.952-22.237 0-24.393-20.67-22.238-35.952-22.238-15.282 0-18.025-19.102-18.025-19.102v-87.382h230.209c27.919 0 50.843 22.923 50.843 50.842z"/><path fill="#E8E5D1" d="m162.126 143.318 6.662-4.8-3.331-10.678-8.327 5.388 4.996 10.09zm-58.384 124.215s-10.09.784-33.601 0c0 0-9.503 89.047-2.45 140.183 0 0 17.732 12.343 68.28 2.547l19.886-133.619-22.727 1.371-29.388-10.482z"/><path fill="#F0A0A0" d="m134.501 273.803-1.959 6.661s3.919 20.278-11.853 12.931c-15.772-7.347-17.829-23.021-17.829-23.021l3.526-9.698 1.666-4.604c14.596-1.47 28.213 12.147 28.213 12.147l-1.764 5.584z"/><path fill="#E3B188" d="m136.069 268.317-1.666 5.486c-14.792-.098-24.196-8.523-28.213-13.029l1.666-4.604c14.596-1.568 28.213 12.147 28.213 12.147z"/><path fill="#F0A0A0" d="m153.506 244.61-9.699-26.646-.881-4.506s-11.658-17.731-38.499-5.976c-26.842 11.756-7.543 49.275 14.89 57.21 0 0 14.204 4.604 33.405.98l-3.821-20.082 4.605-.98z"/><path fill="#2B1D14" d="m117.065 227.075 4.212 22.433-3.233.588s-.784-15.674-6.465-15.086c-5.682.49-4.8 14.204 1.371 16.066l-3.331 8.032s-16.261-9.6-20.474-33.111c-4.212-23.608 31.054-36.343 46.63-29.878 0 0 7.151 0 4.8-8.131 0 0 20.768 14.303 3.233 29.879 0 0-28.703-.882-26.743 9.208z"/><path fill="#171917" d="M67.79 407.814v9.111s21.16 14.498 68.279 2.938v-9.6s-38.401 8.425-68.28-2.449z"/><path fill="#D73A36" d="M67.79 416.827 31.444 652.13H41.73l56.916-177.898 25.862 177.898h10.286l1.371-232.462c-.098.097-39.87 6.563-68.377-2.841z"/><path fill="#111416" d="M124.509 652.13v13.127h41.634v-5.094l-31.348-8.033h-10.286zm-82.875 0v13.127H0v-5.094l31.348-8.033h10.286z"/><path fill="#fff" d="M104.721 264.888s1.274 20.67 19.985 28.507c0 0 9.012.882 7.739-12.833l.685-2.449s8.327 12.049-1.077 25.862l-7.445-7.445-8.719 7.445s-15.184-7.837-14.89-35.756l3.722-3.331z"/><path fill="#D73A36" d="m122.452 295.06-4.31 6.955s4.702 5.682 12.049 0l-2.057-7.347-5.682.392z"/><path fill="#465761" d="M89.93 393.315c-2.254 14.205-4.997 29.291-8.23 45.063 0 0-21.747 2.743-42.417-11.462 0 0 19.593-55.544 22.531-98.549l8.327-60.932s16.458-8.425 30.858 0c.098.098.98 50.646-11.07 125.88zm68.866-120.982-8.621 59.267c-1.077 21.062-1.077 104.035-1.077 104.035l-15.968 2.743c1.665-15.282 2.449-32.327 2.841-49.568.881-41.046-2.841-89.733-2.841-110.795 0-1.763 2.939-9.698 2.939-9.698 9.796 2.253 22.727 4.016 22.727 4.016z"/><path fill="#36434A" d="m89.93 393.316-8.621-61.52 9.796-4.213-12.148-6.759 22.14-53.389c0 .098.882 50.646-11.168 125.881zm49.372-67.985 6.269 3.918-9.502 60.05v-.489c1.175-54.957-2.841-110.795-2.841-110.795l13.911 43.103-7.837 4.213z"/><path fill="#D73A36" d="M121.179 303.877s-6.269 63.773-14.89 91.692l4.114 9.894 10.874-9.502s9.307-56.328 5.192-91.986c-.098-.098-1.763-3.233-5.29-.098z"/><path fill="#465761" d="m158.796 272.333 44.964 3.233 25.372-56.034 11.951 4.114-19.788 84.149-67.887 1.176c.098-.098-4.213-24.686 5.388-36.638zm-88.655-4.8 5.192-79.545 83.463-58.875 5.388 15.478-63.185 53.683v69.161c.098.098-14.106 14.988-30.858.098z"/><path fill="#B3B3B3" d="M321.607 327.29s17.339-8.327 12.637-22.923c-4.702-14.597-13.029-33.601 10.09-41.046 23.217-7.445 27.528 12.833 32.23 27.429 4.702 14.596 23.609 11.266 23.609 11.266l-.098.097 107.463-34.678-34.09-105.7s-3.331-18.907 11.265-23.609c14.597-4.702 34.875-9.013 27.43-32.23-7.445-23.216-26.45-14.792-41.046-10.09-14.597 4.703-22.923-12.637-22.923-12.637L421.43 0 202.29 70.532c-26.645 8.523-41.34 37.324-32.817 63.969l70.532 219.14 81.7-26.351h-.098z"/><path fill="#F0A0A0" d="m167.906 135.579 6.956-3.723s3.428-8.718 1.861-20.082c-1.567-11.363.392-15.87.392-15.87s-10.482-2.938-12.833 6.858c-2.351 9.796 1.273 25.078 1.273 25.078l2.351 7.739z"/><path fill="#000" d="m954.244 624.211 7.348 7.543-20.181 36.148-4.408-2.449 7.347-34.482 9.894-6.76zm10.384 30.564v13.029h41.442v-4.996l-31.254-8.033h-10.188z"/><path fill="#898989" d="m928.48 423.488-51.038 126.469 65.929 81.602 11.951-7.739-33.209-83.268 28.409-65.242 12.833 179.466h10.971l22.14-231.288H928.48z"/><path fill="#E8E5D1" d="M960.611 271.941s15.674 2.841 41.639 14.205c0 0 1.17 74.451-5.883 125.391 0 0-17.633 12.245-67.985 2.547l-20.278-128.82 23.217-2.743 29.29-10.58z"/><path fill="#F0A0A0" d="m930.145 278.211 1.96 6.662s-3.919 20.18 11.853 12.93c15.674-7.347 17.731-22.923 17.731-22.923l-3.527-9.6-1.665-4.506c-14.498-1.469-28.017 12.147-28.017 12.147l1.665 5.29z"/><path fill="#E3B188" d="m928.48 272.725 1.665 5.486c14.793-.098 24.099-8.425 28.115-13.029l-1.665-4.506c-14.596-1.567-28.115 12.049-28.115 12.049z"/><path fill="#F0A0A0" d="m910.847 254.504 4.506-27.919v-4.506s8.131-19.495 36.54-13.029c28.409 6.465 16.457 46.826-4.017 58.679 0 0-13.028 7.053-32.523 7.053v-20.278h-4.506z"/><path fill="#000" d="M996.465 411.537v9.012s-21.061 14.4-67.985 2.841v-9.404c0 .098 38.205 8.424 67.985-2.449z"/><path fill="#E8E5D1" d="M959.73 269.395s-1.274 20.572-19.886 28.311c0 0-9.013.881-7.739-12.833l-.686-2.449s-8.327 11.951 1.077 25.666l7.348-7.446 8.718 7.446s15.086-7.837 14.89-35.56l-3.722-3.135z"/><path fill="#B87D61" d="m941.999 299.371 4.31 6.857s-4.604 5.682-11.951 0l2.057-7.347 5.584.49z"/><path fill="#29363D" d="M974.424 397.234c2.253 14.107 4.996 29.095 8.229 44.867 0 0 21.647 2.743 42.217-11.364 0 0-19.49-55.348-22.43-98.059l2.94-46.434s-28.409-12.539-42.025-14.205c0-.098-.882 50.157 11.069 125.195z"/><path fill="#2F3D45" d="m905.851 280.758 8.523 55.055c1.077 20.964 1.077 103.545 1.077 103.545l15.87 2.743c-1.665-15.184-2.449-32.229-2.841-49.274-1.175-54.663 2.841-110.305 2.841-110.305-.588-1.47-1.861-6.368-1.861-6.368l-23.609 4.604z"/><path fill="#1F2A31" d="m974.424 397.234 8.621-61.226-9.796-4.114 12.147-6.759-22.041-53.194s-.882 50.255 11.069 125.293zm-49.176-67.691-6.27 3.918 9.502 59.855v-.49c-1.175-54.662 2.841-110.305 2.841-110.305l-13.91 42.908 7.837 4.114z"/><path fill="#2F3D45" d="m905.851 280.758-46.336 5.486-5.388 20.474 58.777 5.094c0-.098-2.841-25.274-7.053-31.054z"/><path fill="#491A1A" d="M945.036 236.088s1.665-4.801 7.837-4.115c6.171.784 7.151 14.107 0 16.066l3.624 12.539s13.617-7.739 15.478-24.001c1.861-16.261-2.939-27.723-9.6-32.033 0 0-2.155-6.661 6.269-6.661 0 0-17.535-8.621-29.094 0 0 0-.784-5.682 5.388-7.152 0 0-27.43-1.861-32.23 19.593 0 0-4.898-5.29-1.959-10.482 0 0-10.482 14.302 4.506 22.139 0 0 25.96-5.388 27.919 1.959.196 0-2.155 7.935 1.862 12.148z"/><path fill="#B87D61" d="M937.591 308.187s6.465 60.736 0 96.101l5.78 8.914 6.661-8.914s3.233-44.965-6.661-96.101c0 0-4.115-3.82-5.78 0z"/><path fill="#2F3D45" d="m859.515 286.146-40.556-3.723v19.299l35.168 4.898s8.719-11.266 5.388-20.474z"/><path fill="#E8E5D1" d="m910.847 393.218-4.996 1.665 3.919 9.699 5.485-2.156-4.408-9.208z"/><path fill="#35464F" d="M1005.38 286.146s15.18 63.577 6.56 100.803l-95.509 18.906-5.486-12.539 74.451-24.49-5.584-57.112s6.465-23.804 25.568-25.568z"/><path fill="#F0A0A0" d="m905.851 394.883-4.702 1.274s-9.502-6.955-20.082-2.841 5.094 11.559 10.972 14.694c5.779 3.135 17.828-3.331 17.828-3.331l-4.016-9.796z"/><path fill="#D73A36" d="M818.959 386.948v230.21c0 27.919-22.825 50.842-50.842 50.842H528.405V386.948h290.554z"/><path fill="#E56B68" d="M537.907 386.948v280.954h-230.21c-27.919 0-50.842-22.825-50.842-50.842V386.85h85.814-.098s19.005-2.645 19.005-18.025c0-15.38-2.155-35.951 22.237-35.951 24.393 0 22.237 20.669 22.237 35.951s19.005 18.025 19.005 18.025h-.098 112.95v.098z"/><path fill="#D73A36" d="m537.907 593.255 4.408-69.258-4.408-71.512v33.894s-2.645 19.005-18.025 19.005c-15.38 0-35.952-2.155-35.952 22.237 0 24.393 20.67 22.237 35.952 22.237 15.38 0 18.025 19.103 18.025 19.103v24.294z"/><path fill="#fff" d="m744.018 387.046-67.202-6.27-73.569 6.27h33.895s19.005 2.645 19.005 18.025c0 15.38-2.156 35.952 22.237 35.952 24.392 0 22.237-20.67 22.237-35.952 0-15.38 19.103-18.025 19.103-18.025h24.294z"/></svg>