<svg xmlns="http://www.w3.org/2000/svg" width="428" height="417" fill="none"><path fill="#D9D9D9" d="M159.283 313.883c33.607-39.143 88.507-58.542 139.088-49.146 14.218 2.642 28.219 7.478 40.072 15.801 11.853 8.323 21.448 20.351 25.244 34.375 5.139 18.99-1.44 40.676-16.247 53.551-10.549 9.17-24.26 13.721-37.806 17.066a289.611 289.611 0 0 1-81.906 8.161c-16.221-.707-32.679-2.866-47.425-9.693-13.616-6.301-26.375-17.84-33.227-31.419-7.04-13.951 3.2-28.206 12.207-38.696z"/><path fill="#E3E3E3" d="M98.357 292.228c-6.188-9.879-13.657-19.197-23.334-25.65-9.678-6.453-21.82-9.791-33.127-7.133-11.31 2.657-21.28 12.048-22.83 23.618-1.148 8.562 2.157 17.059 5.865 24.851 8.714 18.308 20.586 35.867 37.773 46.513 13.673 8.469 42.664 17.193 50.486-3.14 7.188-18.684-5.23-43.723-14.833-59.059z"/><path stroke="#E0E0E0" stroke-width="11" d="m113.275 270.231.001.001c.642.957 1.228 1.858 1.781 2.71 1.937 2.979 3.475 5.345 5.607 7.326 2.604 2.419 5.459 3.21 7.318 2.697l.002-.001c1.628-.448 3.27-1.864 5.655-4.562l-20.364-8.171zm0 0c-12.713-18.947-31.809-32.164-49.59-44.471a1340.75 1340.75 0 0 1-6.162-4.281c-19.789-13.854-38.42-29.029-46.804-49.847-6.134-15.23-6.538-33.18-2.895-50.96 3.64-17.759 11.24-34.95 20.61-48.408 18.883-27.12 50.183-44.125 82.184-53.269 28.453-8.13 58.318-10.606 88.477-12.187 23.103-1.211 46.424-1.841 69.462-.732 36.071 1.735 71.25 7.724 103.579 22.27 17.357 7.81 30.732 23.23 39.241 41.835 8.508 18.601 11.937 39.948 9.753 58.917-3.64 31.609-23.769 61.259-52.375 73.862-18.232 8.034-41.755 11.189-62.577 13.94-16.818 2.223-33.635 4.45-50.452 6.677l-27.917 3.696c-22.911 3.032-49.034 6.732-68.557 22.742h-.001m-45.976 20.216 45.976-20.216m0 0c-5.214 4.277-9.652 9.193-13.735 14.071m13.735-14.071-13.735 14.071m0 0a471.754 471.754 0 0 0-4.609 5.619m4.609-5.619-4.609 5.619m0 0c-2.407 2.965-4.735 5.832-7.267 8.697l7.267-8.697zm-11.462 18.561z"/><path stroke="#E38A88" stroke-linecap="round" stroke-linejoin="round" stroke-miterlimit="10" stroke-width="1.333" d="M168.028 399.849h17.364c2.671 0 4.837-2.177 4.837-4.863V277.928c0-2.685 2.165-4.862 4.837-4.862h68.851"/><path stroke="#E38A88" stroke-linecap="round" stroke-linejoin="round" stroke-miterlimit="10" stroke-width="1.333" d="M162.832 384.179h17.364c2.671 0 4.836-2.178 4.836-4.862v-111.36c0-2.686 2.166-4.863 4.838-4.863h68.85"/><path stroke="#E38A88" stroke-linecap="round" stroke-linejoin="round" stroke-miterlimit="10" stroke-width="1.333" d="M168.501 364.71h22.863c2.231 0 4.039-1.818 4.039-4.06v-79.159c0-2.686 2.167-4.864 4.838-4.864H284.7"/><path stroke="#040606" stroke-linecap="round" stroke-linejoin="round" stroke-miterlimit="10" stroke-width="2.667" d="m246.295 407.176-16.879-121.672c-.032-.4-.609-.421-.67-.025l-18.402 121.697m126.564-.922-19.118-79.381-29.092 79.381"/><path fill="#E38A88" d="M379.311 293.307c.189-.52.391-1.03.561-1.559-.17.529-.359 1.048-.561 1.559zm-5.996-42.685c-2.217 5.235-4.686 10.355-7.12 15.491-2.577 5.442-5.201 10.789-8.456 15.864-6.706 10.456-15.188 19.71-24.597 27.759-10.139 8.675-21.795 15.385-33.728 21.224-.098.048-.198.092-.296.139 2.475.096 4.954.111 7.426.031 4.945-.162 9.855-.778 14.724-1.662-4.33 1.135-8.715 1.986-13.307 2.136-7.526.244-15.118-.307-22.51-1.763-7.333-1.445-14.72-3.786-20.976-7.996-2.833-1.907-5.427-4.242-7.411-7.042a22.723 22.723 0 0 1-2.602-4.828c.045-.183.073-.371.123-.553 3.614-13.258 15.135-14.985 25.452-20.873 10.882-6.211 20.194-15.214 26.695-25.971 6.03-9.976 9.572-21.156 14.391-31.718 4.499-9.853 10.336-14.936 20.635-18.555 7.64-2.686 16.079-4.527 23.749-1.932 6.838 2.315 11.892 7.825 15.134 14.417-.543 8.92-3.928 17.809-7.326 25.832z"/><path fill="#CFB9E1" d="M264.828 273.307c-.054-5.189.094-9.908-1.242-15.073-1.769-6.839-7.016-10.574-13.56-12.682-1.438-.463-3.019-.795-4.435-.269-1.636.609-2.681 2.231-3.317 3.864-2.058 5.281-.987 11.209.112 16.773l7.38 37.374c.143.718.349 1.526.99 1.871.491.266 1.091.17 1.638.06a70.958 70.958 0 0 0 16.035-5.263c-2.15 1.002-3.589-25.493-3.601-26.655zm-13.418 73.572c-4.091-1.159-6.139-1.525-10.094-3.095-.007 18.095-2.535 48.609-2.453 53.817 5.08.577 9.055 2.463 14.193 2.518 4.029-6.273 5.673-24.028 7.949-30.89.527-1.586 2.823-9.511 5.387-18.528a285.775 285.775 0 0 1-14.982-3.822z"/><path fill="#040606" d="M260.809 310.573c-5.857 1.357-11.866 1.979-17.804 2.859-3.128.464-9.522 2.253-12.473.056-3.731-2.78 2.381-4.402 5.146-5.956 4.761-2.676 9.592-5.226 14.392-7.83 4.435-2.405 10.129-7.531 14.653-2.571 2.909 3.19 3.242 8.278 3.573 12.369-2.537.09-4.994.495-7.487 1.073z"/><path fill="#171717" d="M355.531 289.353c-2.708-8.595-14.964-10.565-22.531-9.955-15.743 1.268-31.535 1.657-47.191 2.944-12.754 1.048-26.636 3.821-35.407 14.045-7.167 8.354-8.323 19.85-10.352 30.319-3.757 19.386-4.809 37.56-4.371 57.203.01.461.031.955.304 1.327.356.485 1.017.603 1.611.684 7.488 1.006 14.974 2.013 22.461 3.021.444.06.927.112 1.311-.12.42-.256.59-.773.727-1.246 1.169-4.044 16.611-65.909 15.522-66.081 12.928 2.061 23.152 1.464 36.199.409 9.222-.744 18.604-2.345 26.648-6.935 7.777-4.439 18.201-15.671 15.069-25.615z"/><path fill="#F14C62" d="M359.285 285.99c-.928 1.4-.857 2.675-1.321 3.438-2.369-.033-4.743.004-7.111.04-6.208.096-12.47.185-18.576-1.104-5.31-1.123-10.591-2.749-15.708-4.554-7.898-2.789-15.305-4.756-14.724-14.481.729-12.533 2.237-28.324-1.282-40.548-1.421-4.934-2.192-8.612-4.318-13.283-.585-1.282-1.172-2.606-1.255-4.014-.06-1.007.142-2.01.382-2.99 3.929-16.04 17.27-16.234 31.423-17.492 2.192-.196 4.414-.389 6.582-.016 2.675.46 5.797 1.253 8.124 2.657 12.405 7.48 13.244 20.049 16.979 33.033 1.865 6.486 4.788 12.626 6.659 19.11 3.995 13.845 2.144 28.144-5.854 40.204z"/><path fill="#040606" d="M235.382 397.414c-1.523.856-3.801 1.367-5.433 1.862-4.217 1.277-8.589 1.997-12.75 3.473-2.181.774-4.265 3.516-1.892 5.459 1.035.848 2.432 1.062 3.757 1.215 10.555 1.226 21.226.63 31.834.032.578-.033 1.21-.088 1.622-.499.233-.232.36-.549.477-.857 1.29-3.397 2.178-7.194 2.992-10.665-1.422-.35-2.927.246-4.356.356-1.853.14-3.881.289-5.571-.648a27.018 27.018 0 0 1-6.21-4.737c-.169-.174-.344-.356-.569-.448-.739-.3-1.463.503-1.713 1.264-.487 1.483-.512 3.144-1.908 4.026a5.91 5.91 0 0 1-.28.167z"/><path fill="#171717" d="M265.276 269.867c.126-1.762-.009-3.397-1.646-4.016-2.259-.855-3.023.354-4.467-1.999-2.781-4.535-4.756-10.2-6.639-15.17-2.268-5.989-6.546-13.804-6.321-20.24.012-.335.039-.689.235-.959.228-.316.626-.445 1-.543 3.336-.879 6.841-.788 10.28-.565 22.683 1.465 35.346 26.189 46.075 43.119 1.619 2.553 11.043 14.841 13.518 14.645-8.668.69-15.344 5.104-23.361 7.539-4.922 1.494-10.335 5.906-14.94 6.539-1.488.205-7.56-11.016-8.447-12.485-2.321-3.852-5.6-8.242-5.528-12.913.014-.918.17-1.955.241-2.952z"/><path fill="#171717" d="M238.238 272.013c.514 3.834 1.101 7.527 2.056 11.273.083.326.173.665.4.915.359.395.956.452 1.489.422 1.124-.062 2.213-.393 3.319-.606 6.885-1.326 18.336 3.33 23.635-3.122 1.065-1.297 1.403-3.034 1.627-4.7 1.618-12.037-2.207-23.796-2.044-35.888.087-6.459-2.3-10.357-5.565-15.627-3.131-5.055-7.539-6.773-13.189-4.846-9.519 3.246-14.965 13.385-14.517 23.022.449 9.723 1.49 19.475 2.789 29.157z"/><path fill="#CFB9E1" d="M326.842 178.523c.093 1.166-2.335 3.83-3.078 4.671-1.178 1.333-2.548 2.362-4.202 3.019-4.312 1.709-8.831 1.867-12.209-1.706-1.605-1.696-2.695-3.815-3.608-5.968-1.392-3.279-3.333-12.323-2.452-15.777.799-3.134 4.143-.402 7.187-1.454 2.648-.915 4.665-1.736 7.497-1.241 2.519.441 4.947 1.699 6.529 3.753.427.554.813 1.115 1.167 1.676.837 1.789 1.609 3.611 2.166 5.509.465 1.582.622 3.188.873 4.791.018.911.058 1.822.13 2.727z"/><path fill="#CFB9E1" d="M328.636 199.365c-2.505 1.766-5.602 2.932-8.648 3.179-.586.049-8.026-.787-6.961-2.201 2.793-3.705 1.268-7.004-.484-11.031-.268-.618-2.613-4.42-2.37-4.848a1.47 1.47 0 0 1 .261-.339c.561-.54 1.431-.525 2.208-.534 2.904-.034 5.623-.954 7.983-2.647 1.123-.804 2.134-1.753 3.099-2.742.552-.566 1.565-2.536 2.408-2.606.08-.006.141.035.207.064.992 3.994 1.477 7.486 3.466 11.305 1.54 2.957 5.343 4.421 6.421 4.619-1.703 3.038-4.724 5.763-7.59 7.781z"/><path fill="#171717" d="M320.283 172.521c-.075-.614-.151-1.363-.713-1.615-.572-.258-1.188.208-1.801.345-1.955.44-3.759-1.694-4.878-3.047a13.48 13.48 0 0 0-.676-.763c-1.279-1.326-2.595-1.969-4.771-1.79-2.147.177-4.298.923-6.413.508-2.345-.461-4.301-2.429-4.85-4.766-.889-3.786 2.201-8.825 6.462-8.114 1.15.192 2.394.775 3.404.193.568-.328.891-.947 1.281-1.475 1.5-2.033 4.441-2.84 6.76-1.854.61.259 1.178.627 1.812.824 1.214.377 2.517.088 3.785.02 1.5-.081 3.068.176 4.303 1.034 1.236.858 2.065 2.401 1.796 3.887-.078.437-.246.869-.191 1.309.197 1.549 2.649 1.61 3.382 2.986.701 1.321-.58 2.945-.218 4.397.215.864.991 1.535 1.081 2.422.11 1.097-.893 1.867-1.326 2.782-.478 1.01-.926 2.335-1.024 3.444-.202 2.285 1.175 4.743-2.188 4.457-2.766-.236-4.677-2.449-5.017-5.184z"/><path fill="#F14C62" d="M277.794 231.504c-1.327 1.598-2.414 3.247-6.232 2.993-4.849-.321-9.567-2.797-12.337-6.859-.77-1.129-1.402-2.386-1.585-3.742-1.102-8.164 8.038-13.453 13.872-16.756 6.687-3.786 13.919-6.447 21.208-8.792 6.466-2.08 13.221-5.693 20.184-5.135.181.015.369.049.551.098a37.398 37.398 0 0 0-.13 2.72c-3.181 5.031-5.156 10.996-6.442 16.795-.831 3.75-2.684 8.076-2.306 11.943a271.54 271.54 0 0 0-22.936 4.178c-1.974.447-2.963 1.491-3.847 2.557z"/><path fill="#CFB9E1" d="M266.187 214.223c2.95.334 5.421 2.555 6.853 5.169 1.433 2.614 1.999 5.604 2.545 8.538 1.56 8.38 2.068 18.101 4.863 26.136 1.737 4.992 8.494 11.877 5.152 17.572-.98 1.67-3.051 2.615-4.946 2.256-3.354-.635-4.918-4.414-6.345-7.53-1.839-4.02-4.568-7.113-7.005-10.643-3.047-4.413-5.253-9.828-7.46-14.704-2.83-6.251-5.336-13.378-3.026-19.84 1.415-3.958 5.194-7.414 9.369-6.954z"/><mask id="a" width="42" height="47" x="303" y="175" maskUnits="userSpaceOnUse" style="mask-type:luminance"><path fill="#fff" d="M303.568 207.46c-.027-.131-.037-.263-.054-.396.862-3.114 5.299-3.062 7.793-4.373a5.35 5.35 0 0 0 1.305-.97c.049-.049.099-.098.145-.15.783-.853 1.26-1.937 1.447-3.164.759-5.015-1.818-9.537-4.031-13.943a1.47 1.47 0 0 1 .261-.339c.561-.54 1.431-.525 2.208-.534 2.904-.034 5.623-.954 7.984-2.647 1.122-.804 2.133-1.753 3.098-2.742.552-.566 1.565-2.536 2.408-2.606.08-.006.141.035.207.064.992 3.994 1.073 7.728 3.466 11.306.905 1.353 1.975 2.557 3.245 3.44.666.643 1.477 1.112 2.593 1.302.282.048.571.071.863.078.118.017.229.049.349.061a.616.616 0 0 0 .356-.073c1.799-.078 3.656-.506 5.038.556.653.5 1.059 1.256 1.377 2.016 2.344 5.607.697 12.911-2.266 17.955-2.258 3.844-6.223 7.399-10.536 8.607-4.105 1.149-8.39.179-12.296-1.25-1.713-.626-3.341-1.248-4.905-1.969-4.705-2.174-8.764-4.593-9.997-9.956-.02-.091-.04-.181-.058-.273z"/></mask><g mask="url(#a)"><path fill="#111629" d="M319.173 185.754a2.778 2.778 0 0 1-.385.168c-2.447 1.011-5.141 1.632-7.72 1.254-.646.277-.432.808-.106 1.767a64.33 64.33 0 0 1 1.231 4.076l7.14-7.334-.16.069z"/></g><path fill="#F14C62" d="M356.462 202.79c4.875 5.601 6.874 13.154 8.531 20.229l6.425 27.431c.503 2.146 1.008 4.31 1.07 6.514.1 3.537-.91 8.038-1.735 11.445-1.06 4.372-3.663 4.103-7.538 3.717-6.127-.613-14.463-2.476-18.6-7.499-1.966-2.387-2.597-5.579-3.164-8.626l-2.338-12.57c-3.183-17.118-6.364-34.776-2.763-51.811 8.581 1.283 15.1 5.411 20.112 11.17z"/><path stroke="#171717" stroke-linecap="round" stroke-linejoin="round" stroke-miterlimit="10" stroke-width="1.333" d="M336.179 219.785c7.083 1.855 6.449 10.967 7.09 16.586a165.818 165.818 0 0 0 4.71 24.593"/><path stroke="#111629" stroke-linecap="round" stroke-linejoin="round" stroke-miterlimit="10" stroke-width=".667" d="M260.94 239.826c2.71 11.745 8.915 29.584 9.031 41.641"/><path fill="#fff" d="M311.527 179.356c-.423 1.105-1.355 1.914-2.373 2.059-1.017.144-2.084-.38-2.716-1.336"/><path stroke="#666155" stroke-linecap="round" stroke-linejoin="round" stroke-miterlimit="10" stroke-width="5.333" d="M377.124 278.916c-19.615-4.477-36.24-7.748-53.894.602-11.497 5.438-19.255 15.564-21.431 26.341-2.177 10.776 1.323 18.325 10.77 23.074"/><path stroke="#111629" stroke-linecap="round" stroke-linejoin="round" stroke-miterlimit="10" stroke-width=".667" d="M274.226 322.931c.536-4.087.655-9.15 1.192-13.236m-5.725-24.275c12.628-1.931 20.754-.239 37.011-.239"/><path fill="#CFB9E1" d="M324.093 172.084a3.75 3.75 0 0 1-3.741 3.76 3.75 3.75 0 0 1-3.742-3.76c0-2.077 1.675-3.761 3.742-3.761s3.741 1.684 3.741 3.761z"/><path fill="#D73A36" d="M298.241 331.464c.099-.047 1.075-.456 1.173-.504 11.933-5.839 23.589-12.55 33.728-21.224 9.409-8.049 17.892-17.303 24.597-27.759 3.255-5.075 5.879-10.422 8.457-15.864 2.433-5.136 4.902-10.256 7.119-15.492 3.398-8.022 6.784-16.911 7.326-25.831 1.812 3.686 3.064 7.704 3.729 11.704 2.878 17.312.91 38.517-4.498 55.254-.171.529-.372 1.039-.561 1.559-3.606 9.96-10.878 18.855-24.49 26.614-24.146 13.76-43.292 11.699-48.236 11.86-2.471.081-5.868-.22-8.344-.317z"/><path fill="#CFB9E1" d="M346.289 253.41c-3.799.834-7.526 2.055-11.255 3.189-5.92 1.8-11.918 2.839-17.933 4.448-1.709.457-3.444.903-5.212.92-3.04.029-5.976-1.208-9.016-1.275-4.066-.089-8.036 2.191-10.245 5.585-3.72 5.715 2.445 4.184 6.326 4.127l9.078-.133c11.895-.174 23.144.431 35.078 1.441 6.482.548 17.785 2.075 23.552-1.792 2.802-1.877 7.42-11.023 4.848-13.757-.482-.512-1.148-.8-1.799-1.061-5.836-2.335-12.154-3.186-18.422-2.523a45.648 45.648 0 0 0-5 .831z"/><path fill="#E56B68" d="M381.68 251.899c-.201 2.439-.597 4.879-.983 7.242-.493 3.021-.99 6.044-1.73 9.011-.648 2.601-1.517 5.221-3.205 7.297-2.773 3.409-7.818 4.732-11.95 3.36-3.254-1.08-2.806-2.245-1.419-4.956 2.876-5.622 5.864-11.505 8.334-17.353 2.503-5.929 4.808-11.54 6.86-17.636.433-1.286.866-2.573 1.24-3.878a44.944 44.944 0 0 0 1.276-5.928c-.259 1.781.277 4.041.452 5.832.199 2.037.441 4.07.725 6.097.506 3.617.7 7.245.4 10.912z"/><path stroke="#040606" stroke-linecap="round" stroke-linejoin="round" stroke-miterlimit="10" stroke-width="2.667" d="m399.732 407.176-17.696-121.672c-.033-.4-.638-.421-.701-.025l-19.291 121.697"/><path fill="#A49D8B" d="M217.613 281.666h175.292v5.402H217.613v-5.402z"/><path stroke="#171717" stroke-linecap="round" stroke-linejoin="round" stroke-miterlimit="10" stroke-width=".667" d="M318.594 171.542c.222-1.356 2.069-2.113 3.172-1.301"/><path fill="#040606" d="M260.372 281.908h78.898c.794 0 1.438-.644 1.438-1.437v-.86a1.44 1.44 0 0 0-1.438-1.439h-78.898a1.44 1.44 0 0 0-1.438 1.439v.86c0 .793.644 1.437 1.438 1.437z"/><path fill="#040606" d="M258.679 281.908h69.879l-6.08-40.13c-.211-1.392-1.394-2.433-2.769-2.433h-64.341c-1.661 0-2.91 1.497-2.656 3.18l5.967 39.383z"/><path stroke="#F14C62" stroke-linecap="round" stroke-linejoin="round" stroke-miterlimit="10" stroke-width="1.333" d="m288.48 259.262-3.031 2.534m7.014-2.534-3.03 2.534"/><path stroke="#171717" stroke-linecap="round" stroke-linejoin="round" stroke-miterlimit="10" stroke-width="1.333" d="M279.057 225.013c.189 2.625-1.206 6.024-2.387 7.685"/><path fill="#F14C62" d="M116.638 159.008c-5.416-.674-10.352 3.194-11.023 8.64-.67 5.445 3.177 10.407 8.595 11.081 5.418.674 10.352-3.194 11.023-8.64.671-5.446-3.178-10.407-8.595-11.081zm2.894-4.326c.924.269 1.805.624 2.636 1.057-.058.062-.12.119-.173.188a2.448 2.448 0 0 0 .474 3.415 2.42 2.42 0 0 0 3.398-.476c.056-.077.096-.159.143-.239a14.979 14.979 0 0 1 1.767 2.247c-.087.026-.174.044-.26.081a2.441 2.441 0 0 0-1.287 3.195 2.422 2.422 0 0 0 3.179 1.296c.096-.042.181-.098.269-.15.229.925.371 1.88.416 2.856-.097-.025-.192-.055-.295-.068a2.426 2.426 0 0 0-2.704 2.12 2.434 2.434 0 0 0 2.108 2.719c.117.014.231.011.345.009a14.705 14.705 0 0 1-1.067 2.709c-.08-.082-.159-.165-.251-.235a2.418 2.418 0 0 0-3.398.476 2.447 2.447 0 0 0 .474 3.415c.102.077.211.136.319.196-.701.68-1.467 1.29-2.288 1.818a2.455 2.455 0 0 0-.109-.355 2.422 2.422 0 0 0-3.179-1.295 2.444 2.444 0 0 0-1.288 3.196c.053.125.12.24.191.351-.939.234-1.911.376-2.901.419.035-.123.069-.246.084-.377a2.434 2.434 0 0 0-2.108-2.719 2.428 2.428 0 0 0-2.705 2.12c-.017.136-.015.27-.01.403a14.485 14.485 0 0 1-2.72-1.1c.092-.088.182-.178.26-.283a2.445 2.445 0 0 0-.473-3.414 2.418 2.418 0 0 0-3.398.476c-.079.106-.14.218-.2.331a14.764 14.764 0 0 1-1.794-2.312c.115-.031.231-.06.343-.108a2.441 2.441 0 0 0 1.289-3.195 2.42 2.42 0 0 0-3.18-1.295c-.112.048-.212.111-.314.173a14.83 14.83 0 0 1-.396-2.885c.105.027.209.059.319.072a2.427 2.427 0 0 0 2.706-2.12 2.436 2.436 0 0 0-2.11-2.718c-.107-.014-.213-.009-.319-.008.274-.937.637-1.832 1.079-2.676.069.069.135.141.215.201a2.417 2.417 0 0 0 3.397-.476 2.447 2.447 0 0 0-.474-3.415c-.079-.06-.163-.102-.247-.15a14.75 14.75 0 0 1 2.247-1.763c.025.085.043.171.079.254a2.42 2.42 0 0 0 3.178 1.294 2.443 2.443 0 0 0 1.288-3.196c-.036-.085-.085-.158-.129-.238.91-.22 1.85-.355 2.809-.397-.018.081-.044.159-.055.243a2.436 2.436 0 0 0 2.109 2.719 2.43 2.43 0 0 0 2.706-2.12c.01-.09.004-.178.005-.266z"/><path fill="#F14C62" d="M122.938 168.103c-.484-3.944-4.254-6.81-8.404-6.389-4.148.421-7.127 3.972-6.643 7.916.486 3.943 4.256 6.81 8.403 6.389 4.15-.422 7.13-3.973 6.644-7.916zm-6.196 12.675c-6.534.736-12.444-4.009-13.176-10.578-.732-6.568 3.988-12.51 10.522-13.246 6.533-.736 12.445 4.009 13.176 10.577.733 6.568-3.988 12.512-10.522 13.247zm79.923-.112c-4.416-.555-8.451 2.721-9.012 7.317-.56 4.597 2.566 8.772 6.983 9.328 4.417.554 8.451-2.721 9.011-7.318.561-4.596-2.565-8.772-6.982-9.327zm2.371-3.658c.753.226 1.47.523 2.148.886-.048.053-.099.1-.142.159-.661.909-.492 2.198.377 2.88.871.682 2.112.498 2.773-.41.047-.064.08-.134.118-.202a12.384 12.384 0 0 1 1.435 1.891c-.071.023-.142.038-.211.069-1.009.446-1.482 1.654-1.059 2.699.423 1.045 1.582 1.531 2.59 1.085.079-.035.148-.083.22-.126.185.78.298 1.584.333 2.408-.08-.021-.157-.047-.241-.056-1.085-.137-2.073.667-2.212 1.795-.137 1.128.63 2.152 1.713 2.289.096.012.189.008.282.006-.222.8-.517 1.566-.876 2.288-.066-.068-.13-.138-.206-.198-.87-.682-2.111-.497-2.772.411-.661.908-.492 2.198.378 2.88.083.065.172.115.26.164a12.197 12.197 0 0 1-1.871 1.541c-.024-.101-.048-.202-.088-.3-.422-1.044-1.582-1.53-2.59-1.084-1.007.445-1.481 1.654-1.058 2.699.043.106.098.202.155.295-.767.2-1.558.324-2.368.361a1.98 1.98 0 0 0 .071-.318c.138-1.128-.63-2.152-1.714-2.289-1.084-.136-2.073.668-2.211 1.796a2.156 2.156 0 0 0-.009.34 11.581 11.581 0 0 1-2.215-.921c.075-.074.148-.151.213-.239.662-.909.492-2.198-.379-2.88-.869-.682-2.11-.498-2.771.411a1.976 1.976 0 0 0-.164.279 12.31 12.31 0 0 1-1.458-1.947c.093-.026.188-.05.281-.091 1.007-.446 1.481-1.654 1.058-2.699-.423-1.045-1.583-1.531-2.589-1.085a1.902 1.902 0 0 0-.257.147 12.708 12.708 0 0 1-.316-2.433c.085.023.17.049.261.06 1.083.137 2.073-.667 2.211-1.795.137-1.128-.63-2.152-1.714-2.289-.089-.011-.175-.007-.26-.006.226-.791.524-1.547.885-2.26.058.058.111.118.176.169.869.682 2.111.498 2.772-.41.661-.908.491-2.198-.377-2.88-.066-.051-.134-.086-.202-.127a12.305 12.305 0 0 1 1.837-1.492c.02.071.034.143.062.213.424 1.045 1.583 1.531 2.59 1.085 1.008-.447 1.482-1.655 1.06-2.7-.031-.072-.071-.134-.106-.2.742-.189 1.51-.304 2.293-.342-.016.068-.037.133-.046.205-.137 1.127.63 2.152 1.712 2.288 1.085.136 2.076-.667 2.212-1.795.01-.076.005-.149.006-.225z"/><path fill="#F14C62" d="M201.671 188.335c-.378-3.267-3.391-5.633-6.715-5.273-3.326.358-5.722 3.309-5.342 6.575.38 3.267 3.392 5.634 6.717 5.274 3.324-.359 5.72-3.309 5.34-6.576zm-5.102 9.484c-4.687.56-8.915-2.947-9.425-7.817-.51-4.871 2.886-9.288 7.573-9.848 4.687-.56 8.914 2.946 9.426 7.816.51 4.87-2.888 9.289-7.574 9.849zm-37.663-36.153c-8.867-1.104-16.945 5.228-18.043 14.142-1.097 8.914 5.202 17.034 14.068 18.137 8.868 1.104 16.945-5.228 18.043-14.141 1.098-8.914-5.2-17.034-14.068-18.138zm5.242-8.823a25.739 25.739 0 0 1 4.639 1.86c-.103.11-.213.209-.305.33a4.308 4.308 0 0 0 .834 6.011 4.253 4.253 0 0 0 5.977-.84c.101-.133.172-.278.254-.419a26.195 26.195 0 0 1 3.108 3.953c-.152.046-.307.079-.457.143-2.17.923-3.185 3.44-2.266 5.623a4.26 4.26 0 0 0 5.595 2.278c.168-.072.318-.171.474-.262.404 1.628.653 3.307.733 5.025-.172-.044-.341-.096-.521-.119-2.338-.291-4.47 1.379-4.759 3.731-.29 2.351 1.371 4.493 3.711 4.784.205.026.405.018.606.014a25.946 25.946 0 0 1-1.876 4.768c-.141-.144-.279-.289-.445-.414a4.251 4.251 0 0 0-5.977.838 4.305 4.305 0 0 0 .834 6.009c.18.136.371.24.562.343a25.979 25.979 0 0 1-4.027 3.202 4.238 4.238 0 0 0-.192-.625 4.259 4.259 0 0 0-5.593-2.278c-2.171.924-3.185 3.441-2.267 5.623.093.221.213.421.337.617a25.508 25.508 0 0 1-5.106.736c.061-.215.122-.432.15-.662.29-2.351-1.372-4.493-3.712-4.785-2.339-.29-4.469 1.38-4.76 3.731-.029.24-.025.476-.015.709a25.613 25.613 0 0 1-4.787-1.934c.161-.156.319-.314.459-.498a4.305 4.305 0 0 0-.835-6.009 4.252 4.252 0 0 0-5.977.839c-.14.186-.247.384-.353.582a26.092 26.092 0 0 1-3.158-4.07c.203-.053.407-.104.606-.189 2.17-.923 3.185-3.441 2.266-5.623a4.26 4.26 0 0 0-5.594-2.278c-.198.084-.375.195-.554.305a25.946 25.946 0 0 1-.696-5.078c.185.049.367.105.563.13 2.339.29 4.47-1.38 4.759-3.732.29-2.351-1.371-4.493-3.711-4.785-.19-.023-.377-.014-.564-.012a25.899 25.899 0 0 1 1.9-4.708c.124.119.239.247.378.353a4.253 4.253 0 0 0 5.978-.838 4.304 4.304 0 0 0-.835-6.009c-.137-.105-.286-.179-.433-.265a26.005 26.005 0 0 1 3.954-3.101c.044.148.076.299.137.446a4.26 4.26 0 0 0 5.594 2.277c2.171-.923 3.185-3.44 2.266-5.622-.062-.15-.15-.28-.227-.418a25.539 25.539 0 0 1 4.943-.7c-.032.142-.078.279-.096.427-.29 2.351 1.372 4.493 3.71 4.784 2.34.291 4.47-1.379 4.76-3.731.02-.157.009-.311.011-.467z"/><path stroke="#202022" stroke-linecap="round" stroke-linejoin="round" stroke-miterlimit="10" stroke-width="1.333" d="M170.097 176.316c-.815-7.314-7.397-12.598-14.673-11.778-7.276.819-12.53 7.435-11.716 14.749.815 7.315 7.397 12.599 14.673 11.78 7.275-.82 12.532-7.438 11.716-14.751zm-10.994 21.23c-10.83 1.22-20.627-6.646-21.84-17.534-1.213-10.886 6.61-20.735 17.439-21.954 10.83-1.219 20.628 6.644 21.84 17.532 1.213 10.886-6.609 20.737-17.439 21.956z"/><path stroke="#040606" stroke-linecap="round" stroke-linejoin="round" stroke-miterlimit="10" stroke-width="1.333" d="M248.209 45.298a5.597 5.597 0 0 0-7.924-.583 5.668 5.668 0 0 0-.58 7.967m-12.792 15.763c0 2.979 2.401 5.393 5.364 5.393 2.962 0 5.365-2.414 5.365-5.393 0-2.978-2.403-5.392-5.365-5.392-2.963 0-5.364 2.414-5.364 5.392z"/><path fill="#D73A36" d="M93.533 87.294c.114-7.752-6.552-13.74-13.857-13.39-2.54.122-4.87.968-6.824 2.313-3.043-3.498-7.584-5.618-12.56-5.38-6.825.328-13.432 4.97-13.984 11.333-6.684 1.918-11.721 8.147-11.374 15.428a15.38 15.38 0 0 0 5.523 11.118c-.807 2.309-.73 5.023.743 7.727a7.852 7.852 0 0 0 3.524 3.328c2.722 1.288 5.294 1.224 7.462.373l.173 12.567c.01.754.977 1.05 1.404.431l6.54-9.489c6.093 2.507 11.561-1.254 11.969-6.818a10.85 10.85 0 0 0 5.389 1.145c5.588-.269 9.992-4.691 10.421-10.155 3.056 1.828 7.041 2.216 10.998.224a9.878 9.878 0 0 0 4.785-5.323c3.062-8.142-2.878-15.546-10.332-15.432z"/><path stroke="#040606" stroke-linecap="round" stroke-linejoin="round" stroke-miterlimit="10" stroke-width="1.333" d="M48.52 102.676c-3.604.173-6.611 2.452-7.9 5.598m47.378-1.369c-.29-6.095-5.439-10.8-11.503-10.509m17.975-9.089a10.962 10.962 0 0 0-6.3 1.47m-6.183-9.941c-4.87.234-8.628 4.392-8.395 9.288m.665 24.45c4.295.41 8.108-2.759 8.515-7.077m16.074-4.424c1.273-3.688-.67-7.715-4.339-8.994M45.15 111.432c.91 2.818 3.919 4.361 6.722 3.448m6.114-30.54c-3.24-2.242-7.316-3.06-11.474-2.21m-2.498 6.807a9.05 9.05 0 0 0-3.65 7.13m27.235-3.74c-2.713-.546-5.7.754-7.158 3.118-1.46 2.363-1.293 5.63.398 7.832m7.673 2.476a4.034 4.034 0 0 1 1.246 3.487 4.018 4.018 0 0 1-2.18 2.988"/><path fill="#E38A88" d="m137.681 46.085-.408 39.809 8.297.044.407-39.809-8.296-.044z"/><path fill="#F14C62" d="m156.123 52.666-.341 33.327 8.296.045.342-33.328-8.297-.044z"/><path fill="#E38A88" d="m182.877 57.717-.291 28.42-8.296-.044.29-28.376h8.297z"/><path fill="#F14C62" d="m191.633 70.91-.155 15.275 8.296.046.157-15.276-8.298-.045z"/><path stroke="#1F2952" stroke-linecap="round" stroke-linejoin="round" stroke-miterlimit="10" stroke-width="1.333" d="m130.352 85.907 72.898.454"/><path stroke="#040606" stroke-linecap="round" stroke-linejoin="round" stroke-miterlimit="10" stroke-width="1.333" d="M162.854 55.096v9.07m-18.79 4.997v11.458m54.648-5.489v3.79m-17.538-10.965v1.624"/><path stroke="#171717" stroke-linecap="round" stroke-linejoin="round" stroke-miterlimit="10" stroke-width="1.333" d="M299.66 225.576a15.746 15.746 0 0 1 .31-4.433"/><path stroke="#E38A88" stroke-linecap="round" stroke-linejoin="round" stroke-miterlimit="10" stroke-width="1.333" d="m96.407 120.058 18.795 18.894h74.661l23.187 23.704"/><path stroke="#E38A88" stroke-linecap="round" stroke-linejoin="round" stroke-miterlimit="10" stroke-width="1.333" d="m95.813 128.188 16.745 16.833h66.003l25.56 25.694m-90.4-77.911h114.675m-111.257 17.864h92l19.383 19.486m-78.351-8.264 10.253 10.305h46.702l13.1 13.17m-18.111-23.933h-37.818m-35.54-20.154h66.067m-52.854 24.734h-24.148"/><path fill="#E38A88" d="M110.532 92.575a3.198 3.198 0 0 0 3.19 3.207 3.198 3.198 0 0 0 3.189-3.207 3.198 3.198 0 0 0-3.189-3.206 3.198 3.198 0 0 0-3.19 3.206zm114.675 0a3.198 3.198 0 0 0 3.189 3.207 3.198 3.198 0 0 0 3.189-3.207 3.198 3.198 0 0 0-3.189-3.206 3.198 3.198 0 0 0-3.189 3.206zM115.544 126.47a3.197 3.197 0 0 0 3.189 3.206 3.198 3.198 0 0 0 3.19-3.206 3.198 3.198 0 0 0-3.19-3.206 3.198 3.198 0 0 0-3.189 3.206zm45.563-5.038a3.198 3.198 0 0 0 3.19 3.206 3.198 3.198 0 0 0 3.189-3.206 3.197 3.197 0 0 0-3.189-3.206 3.198 3.198 0 0 0-3.19 3.206zm-12.758 0a3.198 3.198 0 0 0 3.19 3.206 3.198 3.198 0 0 0 3.189-3.206 3.197 3.197 0 0 0-3.189-3.206 3.198 3.198 0 0 0-3.19 3.206zm48.754-.458a3.197 3.197 0 0 0 3.189 3.206 3.197 3.197 0 0 0 3.189-3.206 3.198 3.198 0 0 0-3.189-3.207 3.198 3.198 0 0 0-3.189 3.207zm11.846 40.307a3.198 3.198 0 0 0 3.19 3.206 3.198 3.198 0 0 0 3.189-3.206 3.198 3.198 0 0 0-3.189-3.206 3.198 3.198 0 0 0-3.19 3.206zm-8.211 9.33a3.197 3.197 0 0 0 3.19 3.206 3.197 3.197 0 0 0 3.189-3.206 3.198 3.198 0 0 0-3.189-3.206 3.198 3.198 0 0 0-3.19 3.206zm15.046-27.193a3.198 3.198 0 0 0 3.189 3.206 3.198 3.198 0 0 0 3.19-3.206 3.198 3.198 0 0 0-3.19-3.206 3.197 3.197 0 0 0-3.189 3.206zm-79.737-16.948a3.198 3.198 0 0 0 3.19 3.206 3.197 3.197 0 0 0 3.189-3.206 3.198 3.198 0 0 0-3.189-3.206 3.198 3.198 0 0 0-3.19 3.206zm-22.098-15.802a3.198 3.198 0 0 0 3.19 3.206 3.197 3.197 0 0 0 3.189-3.206 3.197 3.197 0 0 0-3.189-3.206 3.198 3.198 0 0 0-3.19 3.206zm-21.326 17.52a3.198 3.198 0 0 0 3.19 3.206A3.197 3.197 0 0 0 99 128.188a3.197 3.197 0 0 0-3.188-3.206 3.198 3.198 0 0 0-3.19 3.206zm.822-8.359a3.197 3.197 0 0 0 3.19 3.206 3.197 3.197 0 0 0 3.19-3.206 3.198 3.198 0 0 0-3.19-3.207 3.198 3.198 0 0 0-3.19 3.207zm32.122-18.551a3.197 3.197 0 0 0 3.19 3.206 3.197 3.197 0 0 0 3.189-3.206 3.198 3.198 0 0 0-3.189-3.206 3.198 3.198 0 0 0-3.19 3.206zm66.068 0a3.197 3.197 0 0 0 3.189 3.206 3.197 3.197 0 0 0 3.19-3.206 3.198 3.198 0 0 0-3.19-3.206 3.198 3.198 0 0 0-3.189 3.206zm32.35 27.941a3.198 3.198 0 0 0 3.19 3.206 3.198 3.198 0 0 0 3.189-3.206 3.198 3.198 0 0 0-3.189-3.207 3.199 3.199 0 0 0-3.19 3.207z"/><path fill="#676767" d="M376.242 93.764c0 .973-.785 1.763-1.754 1.763H340.75c-.969 0-1.754-.79-1.754-1.763 0-.974.785-1.763 1.754-1.763h33.738c.969 0 1.754.79 1.754 1.763zM322.479 92h10.782c.968 0 1.753.79 1.753 1.764 0 .973-.785 1.763-1.753 1.763h-10.782c-.969 0-1.753-.79-1.753-1.763 0-.974.784-1.763 1.753-1.763zm10.775 8.678h30.694c.968 0 1.753.789 1.753 1.762 0 .974-.785 1.763-1.753 1.763h-30.694a1.758 1.758 0 0 1-1.753-1.763c0-.973.785-1.762 1.753-1.762zm-4.723 1.762c0 .974-.786 1.763-1.754 1.763h-6.535a1.758 1.758 0 0 1-1.754-1.763c0-.973.785-1.762 1.754-1.762h6.535c.968 0 1.754.789 1.754 1.762zm42.094-1.762h3.863c.969 0 1.754.789 1.754 1.762 0 .974-.785 1.763-1.754 1.763h-3.863a1.758 1.758 0 0 1-1.753-1.763c0-.973.785-1.762 1.753-1.762zm11.494 0h15.464c.968 0 1.753.789 1.753 1.762 0 .974-.785 1.763-1.753 1.763h-15.464a1.057 1.057 0 0 1-1.054-1.06v-1.405c0-.586.472-1.06 1.054-1.06zm-21.276 9.857c0 .972-.785 1.762-1.753 1.762H320.9c-.968 0-1.753-.79-1.753-1.762 0-.973.785-1.763 1.753-1.763h38.19c.968 0 1.753.79 1.753 1.763zm27.172 0c0 .972-.785 1.762-1.753 1.762h-17.81c-.969 0-1.754-.79-1.754-1.762 0-.973.785-1.763 1.754-1.763h17.81c.968 0 1.753.79 1.753 1.763zm13.118 8.677c0 .973-.785 1.762-1.753 1.762h-2.35a1.758 1.758 0 0 1-1.753-1.762c0-.974.785-1.763 1.753-1.763h2.35c.968 0 1.753.789 1.753 1.763zm-8.198 0c0 .973-.786 1.762-1.754 1.762h-22.963a1.758 1.758 0 0 1-1.754-1.762c0-.974.785-1.763 1.754-1.763h22.963c.968 0 1.754.789 1.754 1.763zm-30.218 0c0 .973-.786 1.762-1.754 1.762h-8.439a1.758 1.758 0 0 1-1.754-1.762c0-.974.785-1.763 1.754-1.763h8.439c.968 0 1.754.789 1.754 1.763zm-17.1 0c0 .973-.785 1.762-1.754 1.762h-8.674a1.758 1.758 0 0 1-1.753-1.762c0-.974.785-1.763 1.753-1.763h8.674c.969 0 1.754.789 1.754 1.763zm-18.272 0c0 .973-.785 1.762-1.754 1.762H320.9a1.758 1.758 0 0 1-1.754-1.762c0-.974.785-1.763 1.754-1.763h4.691c.969 0 1.754.789 1.754 1.763zm54.345 8.676c0 .973-.785 1.763-1.753 1.763h-3.286c-.969 0-1.754-.79-1.754-1.763 0-.973.785-1.762 1.754-1.762h3.286c.968 0 1.753.789 1.753 1.762zm-13.736 0c0 .973-.785 1.763-1.753 1.763h-16.5c-.968 0-1.753-.79-1.753-1.763 0-.973.785-1.762 1.753-1.762h16.5c.968 0 1.753.789 1.753 1.762zm-23.56 0c0 .973-.785 1.763-1.754 1.763h-12.891c-.968 0-1.753-.79-1.753-1.763 0-.973.785-1.762 1.753-1.762h12.891c.969 0 1.754.789 1.754 1.762zm16.003-59.16c0 .974-.785 1.763-1.753 1.763h-38.189a1.76 1.76 0 0 1-1.754-1.763 1.76 1.76 0 0 1 1.754-1.762h38.189c.968 0 1.753.789 1.753 1.762zm-13.955-9.259h4.668c.969 0 1.753.79 1.753 1.763 0 .973-.784 1.762-1.753 1.762h-4.668a1.757 1.757 0 0 1-1.753-1.762c0-.974.784-1.763 1.753-1.763zm11.76 0h15.854c.968 0 1.754.79 1.754 1.763 0 .973-.786 1.762-1.754 1.762h-15.854a1.758 1.758 0 0 1-1.754-1.762c0-.974.785-1.763 1.754-1.763zm-16.238 1.763c0 .973-.785 1.762-1.754 1.762h-19.755a1.757 1.757 0 0 1-1.753-1.762c0-.974.785-1.763 1.753-1.763h19.755c.969 0 1.754.79 1.754 1.763zm20.308 16.173c0 .973-.785 1.763-1.753 1.763h-8.44c-.969 0-1.754-.79-1.754-1.763 0-.974.785-1.762 1.754-1.762h8.44c.968 0 1.753.788 1.753 1.762zm-17.101 0c0 .973-.784 1.763-1.753 1.763h-8.674c-.968 0-1.753-.79-1.753-1.763 0-.974.785-1.762 1.753-1.762h8.674c.969 0 1.753.788 1.753 1.762zm-17.262 0c0 .973-.785 1.763-1.753 1.763h-6.389c-.968 0-1.753-.79-1.753-1.763 0-.974.785-1.762 1.753-1.762h6.389c.968 0 1.753.788 1.753 1.762zm26.327 8.677c0 .974-.785 1.763-1.754 1.763h-9.845c-.968 0-1.753-.79-1.753-1.763 0-.973.785-1.762 1.753-1.762h9.845c.969 0 1.754.789 1.754 1.762zm27.01 0c0 .974-.785 1.763-1.753 1.763h-3.287c-.969 0-1.754-.79-1.754-1.763 0-.973.785-1.762 1.754-1.762h3.287c.968 0 1.753.789 1.753 1.762zm-10.073 0c0 .974-.785 1.763-1.753 1.763h-7.269c-.968 0-1.753-.79-1.753-1.763 0-.973.785-1.762 1.753-1.762h7.269c.968 0 1.753.789 1.753 1.762zm-36.777 0c0 .974-.784 1.763-1.753 1.763h-12.891a1.76 1.76 0 0 1-1.753-1.763c0-.973.786-1.762 1.753-1.762h12.891c.969 0 1.753.789 1.753 1.762zm47.578-20.819a.823.823 0 0 0 .563-.222l4.174-3.878-4.142-4.29a.827.827 0 0 0-1.174-.019.838.838 0 0 0-.018 1.181l2.957 3.063-2.924 2.717a.837.837 0 0 0 .564 1.448z"/><path fill="#676767" d="M376.939 65.263a.823.823 0 0 0 .564-.222l4.174-3.878-4.142-4.29a.827.827 0 0 0-1.174-.019.837.837 0 0 0-.018 1.181l2.957 3.063-2.925 2.717a.838.838 0 0 0-.046 1.18.826.826 0 0 0 .61.268zm-56.613 67.186c.223 0 .446-.09.61-.269a.84.84 0 0 0-.046-1.18l-2.925-2.716 2.958-3.063a.839.839 0 0 0-.018-1.18.83.83 0 0 0-1.176.017l-4.141 4.29 4.174 3.88c.16.148.362.221.564.221z"/><path fill="#676767" d="M325.36 132.449c.224 0 .447-.09.611-.269a.839.839 0 0 0-.047-1.18L323 128.284l2.957-3.063a.838.838 0 0 0-.018-1.18.827.827 0 0 0-1.174.017l-4.143 4.29 4.175 3.88a.825.825 0 0 0 .563.221z"/><path fill="#D73A36" d="M254.361 140.298h1.036a5.126 5.126 0 0 0 5.125-5.125V97.65a5.125 5.125 0 0 0-5.125-5.125h-1.036a5.124 5.124 0 0 0-5.124 5.125v37.523a5.124 5.124 0 0 0 5.124 5.125z"/><path fill="#D73A36" d="m236.128 174.835 1.007.548a4.484 4.484 0 0 0 6.093-1.824l14.488-26.919c1.181-2.196.369-4.938-1.815-6.125l-1.007-.548a4.482 4.482 0 0 0-6.093 1.824l-14.488 26.918a4.531 4.531 0 0 0 1.815 6.126z"/><path stroke="#D73A36" stroke-linecap="round" stroke-linejoin="round" stroke-miterlimit="10" stroke-width="6.667" d="M239.391 191.233c3.139-6.226 1.646-13.331-3.334-15.869-4.981-2.537-11.564.454-14.703 6.68"/><path fill="#171717" d="M252.679 135.526a1.82 1.82 0 0 0 1.815 1.824 1.82 1.82 0 0 0 1.815-1.824 1.82 1.82 0 0 0-1.815-1.824 1.819 1.819 0 0 0-1.815 1.824zm-1.555 8.6c0 1.008.812 1.824 1.815 1.824a1.82 1.82 0 0 0 1.814-1.824 1.82 1.82 0 0 0-1.814-1.825 1.82 1.82 0 0 0-1.815 1.825z"/><path stroke="#040606" stroke-linecap="round" stroke-linejoin="round" stroke-miterlimit="10" stroke-width="1.333" d="M242.957 94.741c0 6.261 5.049 11.336 11.277 11.336 6.229 0 11.277-5.075 11.277-11.336s-5.048-11.336-11.277-11.336c-6.228 0-11.277 5.075-11.277 11.336z"/><path fill="#040606" d="M246.561 94.74c0 4.26 3.435 7.714 7.673 7.714 4.238 0 7.673-3.454 7.673-7.713 0-4.26-3.435-7.714-7.673-7.714-4.238 0-7.673 3.453-7.673 7.714z"/><path stroke="#040606" stroke-linecap="round" stroke-linejoin="round" stroke-miterlimit="10" stroke-width="1.333" d="M239.391 191.233c3.139-6.226 1.646-13.331-3.334-15.869-4.981-2.537-11.564.454-14.703 6.68"/><path stroke="#E38A88" stroke-linecap="round" stroke-linejoin="round" stroke-miterlimit="10" stroke-width="1.333" d="M254.016 92.525V77.912c0-5.815 4.688-10.529 10.473-10.529h51.147m0 22.673h-22.92a17.934 17.934 0 0 0-12.714 5.294l-21.73 21.845"/><path stroke="#E38A88" stroke-linecap="round" stroke-linejoin="round" stroke-miterlimit="10" stroke-width="1.333" d="M315.636 97.614H297.5a17.928 17.928 0 0 0-12.713 5.294l-26.173 26.311"/><path stroke="#F14C62" stroke-linecap="round" stroke-linejoin="round" stroke-miterlimit="10" stroke-width="1.333" d="m258.679 281.908-6.672-40.315a1.928 1.928 0 0 1 1.894-2.248h29.467"/><path fill="#D73A36" d="M56.553 417h114.782V311.047H56.553V417z"/><path stroke="#171717" stroke-linecap="round" stroke-linejoin="round" stroke-miterlimit="10" stroke-width="1.333" d="M56.553 331.94h114.782M56.553 352.833h114.782M56.553 373.727h114.782M56.553 394.618h114.782"/><path fill="#E38A88" d="M141.576 402.217h21.729v6.172h-21.729v-6.172zm-10.864 0v6.172h-64.24v-6.172h64.24zm10.864-20.419h21.729v6.173h-21.729v-6.173zm-10.864 0v6.173h-64.24v-6.173h64.24zm10.864-20.418h21.729v6.173h-21.729v-6.173zm-10.864 0v6.173h-64.24v-6.173h64.24zm10.864-20.419h21.729v6.174h-21.729v-6.174zm-10.864 0v6.174h-64.24v-6.174h64.24zm10.864-20.417h21.729v6.173h-21.729v-6.173zm-10.864 0v6.173h-64.24v-6.173h64.24zM86.664 140.103a3.198 3.198 0 0 0 3.19 3.207 3.198 3.198 0 0 0 3.189-3.207 3.198 3.198 0 0 0-3.19-3.206 3.198 3.198 0 0 0-3.19 3.206zm-23.696-5.539a3.198 3.198 0 0 0 3.189 3.206 3.198 3.198 0 0 0 3.19-3.206 3.198 3.198 0 0 0-3.19-3.206 3.197 3.197 0 0 0-3.19 3.206zm7.321-4.274a3.198 3.198 0 0 0 3.19 3.206 3.198 3.198 0 0 0 3.19-3.206 3.199 3.199 0 0 0-3.19-3.206 3.199 3.199 0 0 0-3.19 3.206zm6.588-6.85a3.198 3.198 0 0 0 3.19 3.206 3.198 3.198 0 0 0 3.189-3.206 3.198 3.198 0 0 0-3.19-3.207 3.198 3.198 0 0 0-3.189 3.207z"/><path stroke="#E38A88" stroke-linecap="round" stroke-linejoin="round" stroke-miterlimit="10" stroke-width="1.333" d="m66.066 132.981-.709 155.986-30.82 30.983v47.365l18.598 18.698m26.8-263.716v156.698l27.278 27.422m-33.91-176.384V302.5"/><path stroke="#E38A88" stroke-linecap="round" stroke-linejoin="round" stroke-miterlimit="10" stroke-width="1.333" d="M89.854 140.103v134.618l30.821 30.985"/><path fill="#E38A88" d="M117.524 305.666a3.198 3.198 0 0 0 3.19 3.206 3.197 3.197 0 0 0 3.189-3.206 3.198 3.198 0 0 0-3.189-3.207 3.199 3.199 0 0 0-3.19 3.207zm-47.786-.475a3.197 3.197 0 0 0 3.19 3.205 3.197 3.197 0 0 0 3.19-3.205 3.198 3.198 0 0 0-3.19-3.207 3.198 3.198 0 0 0-3.19 3.207zM50.53 386.863a3.198 3.198 0 0 0 3.189 3.207 3.2 3.2 0 0 0 3.19-3.207 3.199 3.199 0 0 0-3.19-3.206 3.198 3.198 0 0 0-3.19 3.206zm53.493-81.197a3.197 3.197 0 0 0 3.19 3.206 3.197 3.197 0 0 0 3.188-3.206 3.197 3.197 0 0 0-3.188-3.207 3.198 3.198 0 0 0-3.19 3.207z"/></svg>